<svg height="512pt" viewBox="-3 0 512 512.00105" width="512pt" xmlns="http://www.w3.org/2000/svg"><path d="m244.382812 333.167969 3.320313-148.191407-17.902344 6.726563s-5.933593-62.191406-55.378906-111.636719c-19.113281-19.109375-44.632813-32.222656-73.792969-32.222656-55.574218 0-100.628906 45.054688-100.628906 100.636719 0 48.054687 33.679688 88.234375 78.71875 98.238281-46.101562 18.214844-78.71875 63.175781-78.71875 115.757812 0 29.621094 10.359375 56.820313 27.640625 78.1875-4.933594 7.300782-7.8125 16.105469-7.8125 25.578126 0 25.273437 20.484375 45.757812 45.757813 45.757812 18.320312 0 34.121093-10.773438 41.425781-26.328125 5.683593.796875 11.488281 1.21875 17.394531 1.21875 68.703125 0 124.402344-55.703125 124.402344-124.417969 0-10.414062-1.289063-20.527344-3.699219-30.195312zm0 0" fill="#ffe469"/><path d="m260.972656 333.167969-3.320312-148.191407 17.902344 6.726563s5.933593-62.191406 55.378906-111.636719c19.109375-19.109375 44.632812-32.222656 73.792968-32.222656 55.574219 0 100.628907 45.054688 100.628907 100.636719 0 48.054687-33.679688 88.234375-78.71875 98.238281 46.101562 18.214844 78.71875 63.175781 78.71875 115.757812 0 29.621094-10.359375 56.820313-27.640625 78.1875 4.929687 7.300782 7.8125 16.105469 7.8125 25.578126 0 25.273437-20.484375 45.757812-45.757813 45.757812-18.320312 0-34.121093-10.773438-41.425781-26.328125-5.683594.796875-11.488281 1.21875-17.394531 1.21875-68.703125 0-124.402344-55.703125-124.402344-124.417969 0-10.414062 1.289063-20.527344 3.699219-30.195312zm0 0" fill="#ffe469"/><path d="m426.640625 246.71875c45.035156-10.003906 78.714844-50.183594 78.714844-98.238281 0-55.582031-45.050781-100.636719-100.628907-100.636719-7.617187 0-14.988281.902344-22.058593 2.566406 44.652343 10.285156 77.949219 50.289063 77.949219 98.070313 0 48.054687-33.679688 88.234375-78.71875 98.238281 46.101562 18.214844 78.71875 63.175781 78.71875 115.757812 0 29.621094-10.359376 56.820313-27.640626 78.1875 4.929688 7.300782 7.8125 16.105469 7.8125 25.582032 0 17.144531-9.4375 32.074218-23.390624 39.914062 6.613281 3.714844 14.246093 5.839844 22.371093 5.839844 25.273438 0 45.757813-20.484375 45.757813-45.753906 0-9.476563-2.878906-18.28125-7.8125-25.582032 17.28125-21.367187 27.640625-48.566406 27.640625-78.1875 0-52.582031-32.613281-97.542968-78.714844-115.757812zm0 0" fill="#ffda30"/><path d="m193.6875 4.449219c-1.757812-3.828125-6.285156-5.507813-10.113281-3.75-3.828125 1.753906-5.507813 6.28125-3.75 10.109375l48.132812 104.871094c1.28125 2.796874 4.046875 4.449218 6.933594 4.449218 1.0625 0 2.144531-.226562 3.175781-.699218 3.828125-1.757813 5.507813-6.285157 3.75-10.113282zm0 0" fill="#e31e7f"/><path d="m321.273438.699219c-3.828126-1.757813-8.355469-.078125-10.113282 3.75l-48.132812 104.867187c-1.757813 3.828125-.078125 8.355469 3.75 10.113282 1.03125.472656 2.113281.699218 3.175781.699218 2.890625 0 5.652344-1.652344 6.9375-4.449218l48.132813-104.871094c1.753906-3.828125.074218-8.355469-3.75-10.109375zm0 0" fill="#e31e7f"/><path d="m297.3125 241.511719c-1.949219-79.007813-21.1875-141.039063-44.632812-141.039063-23.449219 0-42.6875 62.03125-44.636719 141.039063-.109375 4.363281-.167969 8.777343-.167969 13.238281 0 23.691406 1.554688 46.132812 4.324219 66.191406 7.195312 52.082032 22.617187 88.085938 40.480469 88.085938 17.863281 0 33.28125-36.003906 40.476562-88.085938 2.769531-20.058594 4.324219-42.5 4.324219-66.191406 0-4.460938-.058594-8.875-.167969-13.238281zm0 0" fill="#fd646f"/><path d="m297.3125 241.511719c-1.949219-79.007813-21.1875-141.039063-44.632812-141.039063-8.148438 0-15.789063 7.496094-22.371094 20.589844 12.359375 24.578125 20.992187 68.898438 22.265625 120.449219.109375 4.363281.164062 8.777343.164062 13.238281 0 23.691406-1.550781 46.132812-4.320312 66.191406-3.914063 28.320313-10.261719 51.871094-18.109375 67.480469 6.582031 13.09375 14.21875 20.605469 22.371094 20.605469 17.863281 0 33.28125-36.003906 40.476562-88.085938 2.769531-20.058594 4.324219-42.5 4.324219-66.191406 0-4.460938-.058594-8.875-.167969-13.238281zm0 0" fill="#e31e7f"/><g fill="#f7ca00"><path d="m146.421875 148.488281c0 24.992188-20.257813 45.25-45.25 45.25-24.988281 0-45.246094-20.257812-45.246094-45.25 0-24.988281 20.257813-45.246093 45.246094-45.246093 24.992187 0 45.25 20.257812 45.25 45.246093zm0 0"/><path d="m168.785156 327.289062c-12.257812 16.476563-39.636718 22.964844-39.636718 22.964844s-.925782-29.070312 10.601562-44.566406c5.964844-8.019531 17.300781-9.679688 25.320312-3.71875 8.015626 5.964844 9.679688 17.304688 3.714844 25.320312zm0 0"/><path d="m334.035156 327.289062c12.257813 16.476563 39.640625 22.964844 39.640625 22.964844s.925781-29.070312-10.605469-44.566406c-5.964843-8.019531-17.300781-9.679688-25.316406-3.71875-8.019531 5.964844-9.683594 17.304688-3.71875 25.320312zm0 0"/><path d="m448.414062 148.488281c0 24.992188-20.257812 45.25-45.246093 45.25-24.992188 0-45.25-20.257812-45.25-45.25 0-24.988281 20.257812-45.246093 45.25-45.246093 24.988281 0 45.246093 20.257812 45.246093 45.246093zm0 0"/></g><path d="m96.378906 385.691406c-22.789062-21.730468-29.277344-54.125-19.125-81.925781-3.761718 2.71875-7.335937 5.796875-10.652344 9.273437-29.257812 30.6875-28.105468 79.28125 2.582032 108.539063 30.683594 29.257813 79.277344 28.105469 108.535156-2.582031 7.53125-7.894532 13.027344-16.980469 16.542969-26.609375-29.402344 21.257812-70.675781 19.246093-97.882813-6.695313zm0 0" fill="#fd646f"/><path d="m409.683594 385.691406c22.789062-21.730468 29.273437-54.125 19.125-81.925781 3.757812 2.71875 7.332031 5.796875 10.648437 9.273437 29.261719 30.6875 28.105469 79.28125-2.578125 108.539063-30.6875 29.257813-79.28125 28.105469-108.539062-2.582031-7.527344-7.894532-13.027344-16.980469-16.542969-26.609375 29.402344 21.257812 70.679687 19.246093 97.886719-6.695313zm0 0" fill="#fd646f"/><path d="m297.3125 241.511719h-89.269531c-.109375 4.363281-.167969 8.777343-.167969 13.238281 0 23.691406 1.554688 46.132812 4.324219 66.191406h80.957031c2.769531-20.058594 4.324219-42.5 4.324219-66.191406 0-4.460938-.058594-8.875-.167969-13.238281zm0 0" fill="#f7ca00"/><path d="m297.3125 241.511719h-44.738281c.109375 4.363281.164062 8.777343.164062 13.238281 0 23.691406-1.550781 46.132812-4.320312 66.191406h44.738281c2.769531-20.058594 4.324219-42.5 4.324219-66.191406 0-4.460938-.058594-8.875-.167969-13.238281zm0 0" fill="#ebb400"/></svg>