<svg xmlns="http://www.w3.org/2000/svg" viewBox="0 0 300 300"><title>Asset 10</title><g id="Layer_2" data-name="Layer 2"><g id="frame"><path d="M150,0A150,150,0,1,0,300,150,150,150,0,0,0,150,0Zm.29,252.21A101.92,101.92,0,1,1,252.21,150.29,101.92,101.92,0,0,1,150.29,252.21Z"/><path d="M22.7,91.51,51.83,104A108.76,108.76,0,0,1,69.54,78.19L46.2,55.94A140.94,140.94,0,0,0,22.7,91.51Z" style="fill:#fff"/><path d="M40.93,146.12a107.56,107.56,0,0,1,8-35.76L19.92,98a140.35,140.35,0,0,0-10,48.18Z" style="fill:#8be4ff"/><path d="M112,50A107.75,107.75,0,0,1,146,43.49V9.62a140.34,140.34,0,0,0-46.83,9.63Z" style="fill:#fff"/><path d="M195.36,53.89a108,108,0,0,1,26.74,18L246.7,47.3a141.06,141.06,0,0,0-37.45-25.06Z" style="fill:#fff"/><path d="M227.12,76.84a108.49,108.49,0,0,1,20.12,29.55l32.33-13a141.44,141.44,0,0,0-27.85-41.14Z" style="fill:#8be4ff"/><path d="M153.05,43.53a107.73,107.73,0,0,1,35.88,7.55l13.87-31.6a140.35,140.35,0,0,0-49.75-9.91Z" style="fill:#8be4ff"/><path d="M46.8,187.23a108.05,108.05,0,0,1-6-34.09h-31a140.42,140.42,0,0,0,8.45,45.57Z" style="fill:#fff"/><path d="M282.25,99.83l-32.28,13A108.06,108.06,0,0,1,257,146l34.56,0A140.36,140.36,0,0,0,282.25,99.83Z" style="fill:#fff"/><path d="M69.39,224.88a108.05,108.05,0,0,1-20.07-31.1L20.86,205.25a141,141,0,0,0,26.85,41.34Z" style="fill:#8be4ff"/><path d="M247.88,195.44a108.32,108.32,0,0,1-17,26.8l24.11,23a140.81,140.81,0,0,0,24-36.45Z" style="fill:#fff"/><path d="M74.47,73.19a108,108,0,0,1,31-20.62L92.74,22A141.14,141.14,0,0,0,51,50.86Z" style="fill:#8be4ff"/><path d="M226.14,227.4a108.55,108.55,0,0,1-31.25,22.17l12.44,29.95a141.48,141.48,0,0,0,42.83-29.24Z" style="fill:#8be4ff"/><path d="M257.11,153a108,108,0,0,1-6.59,35.91l31.25,13.37a140.43,140.43,0,0,0,9.82-49.3Z" style="fill:#8be4ff"/><path d="M102,249.11a108,108,0,0,1-27.73-19.22L52.63,251.6a141,141,0,0,0,37,25.85Z" style="fill:#fff"/><path d="M146,259.75a108,108,0,0,1-37.58-7.81L96,280.34a140.16,140.16,0,0,0,50,10.93Z" style="fill:#8be4ff"/><path d="M188.44,252.35a107.49,107.49,0,0,1-35.39,7.35v31.63a140.26,140.26,0,0,0,47.78-9.16Z" style="fill:#fff"/></g><g id="outline"><circle cx="150.29" cy="150.29" r="101.92" transform="translate(-62.25 150.29) rotate(-45)" style="fill:#fff"/><path d="M90,164.48s-6.47-28.67-11.4-44.39c0,0-10.15-6.25-7.71-18.5,1.54-7.76,15.72-6.48,15.72-6.48S91.86,85.25,99,83.71c0,0,2.47-4.94,6.48-6.79s8.63-2.46,14.8-7.09,5.24-5.24,8.32-5.86,11.1,2.78,13.87,3.7,7.4,5.25,10.18,5.55,17.57-4,21-3.39S180,74.39,180,74.39s18.53,13.18,21.6,19.42c0,0,17.73-6.93,24.67.2s-1.59,26.36-10.6,30.12c0,0-2.48,7.23-3.77,23S205,165.94,205,165.94s8.52-.2,14.76,3.57,24.45,18,28.24,29.72c6,18.73-16,47.76-24.38,49.64,0,0,1.39-20.9-3-25.16s-8.52,1.38-16.45,3.46-19.91,1-22.09.4c0,0,5.15,14.86-7.14,25.36,0,0-7.33-21.1-12.88-22.88,0,0-7.63,17-15.65,24.67,0,0-3.86-24.38-8.52-27.75,0,0-4.86-1.28-15.85,16,0,0-6.84-11.1-3-21.9,0,0-5.46-1.21-15.55-3.86-9.41-2.48-22.39,2.18-19.32,11S89,240.55,90.15,246.1c0,0-10.5,4.85-22.29-8.92S55.67,216,56.47,207.46c0,0,4.55-12.79,4.85-17S62.91,178.13,90,164.48Z"/></g><g id="shadow"><g id="leaf"><path d="M122.84,234.57s8.51-10.8,11.84-11.72c0,0-.12-2.3-2.19-2.18s-8,0-8,0S119.74,229.4,122.84,234.57Z" style="fill:#a7b900"/><path d="M165,225.75a50.74,50.74,0,0,1,5.16-5.09,2.32,2.32,0,0,1,2,.93c.9,1.08,11.22,8.6,4.53,23.72C176.69,245.31,164.1,227.11,165,225.75Z" style="fill:#a7b900"/><path d="M147.9,246A101.2,101.2,0,0,0,156,232.45c3.07-6.61,10.77-13.85,10.77-13.85s2.71-5-6.07-12.67-11-6.25-11-6.25,3,10.23-1.9,13.85a32.16,32.16,0,0,1-9.51,4.89A59.37,59.37,0,0,1,147.9,246Z" style="fill:#a7b900"/><path d="M193.75,224.88c16.35-1,22.27-7.76,26.12-6.73,10.59,2.81,8.81,14.43,8.22,22.79,0,0,16.5-20.94,16.73-30.93s-3-17.62-10.29-23.84-15.77-15-26-15c-8.59,0-11.4,3.33-13.4,4.36s-37.67,18.8-37.67,18.8,2.16,3.63,7.48,11S177.39,225.84,193.75,224.88Z" style="fill:#a7b900"/><path d="M107.38,214a43.67,43.67,0,0,0,24.31,3c14.06-2.16,14.45-11,14.45-11s-2-11.89-7.93-16.34-9.7-1.59-18.28-4.29-22.08-11-26.53-16.36c0,0-4.6-1.43-6.19,0s-12.55,10.17-14.93,11.28a12.23,12.23,0,0,0-7,10.8c-.16,6.36-3.81,14.91-3.81,14.91s-3,11.24,0,14.61,11.12,22.59,24.94,23.06c0,0-10.33-10.53-6-23.06S107.38,214,107.38,214Z" style="fill:#a7b900"/><path d="M132.49,203.69s-1,4.64-13.68,2.36c-40.57-7.33-37.67,7.81-49.27,9.89,0,0-4.25-24.8,18.67-30.4,12.06-2.94,13.62,3.07,20.89,3.28S134,198.34,132.49,203.69Z" style="fill:#8c9303"/><path d="M172,199.57s11.3,17.69,21.16,16.29,25.24-8.33,42.82.08c0,0,0-17.22-14.9-25.68C207,182.29,178.9,188.48,172,199.57Z" style="fill:#8c9303"/></g><g id="petal"><path d="M134.68,183.89s-1.78-22.2-15.79-35.3-34-23.85-34-23.85S90,158.6,97.26,166C102,170.91,112.07,183.53,134.68,183.89Z" style="fill:#191919"/><path d="M151.4,161.32a42.62,42.62,0,0,1,13.53-13.53c9.31-5.92,10-14.72,10-14.72s-5.09,6.77-17.43,4.74-37.55-25.89-40.59-25.72c0,0,11.16,15.06,15.22,21S144.8,153,151.4,161.32Z" style="fill:#191919"/><path d="M167.12,183.89s18.11-5,30.29-15.46S209.59,128,209.59,128,181.84,140.49,167.12,183.89Z" style="fill:#191919"/><path d="M155,109.89s10.49,4,20-11.94c3-5.14-7.27-6.66-13-9.37s-15.06-4.91-22.84,0C139.05,88.58,155.12,92,155,109.89Z" style="fill:#191919"/><path d="M152.67,193.78s5.06-17-8.84-36.63S126.74,133.61,123,128s-15.7-23.5-27-28.07-18.67-1.46-20.06,4-2,10.27,16.48,19.8,32.39,21.26,38.74,33.58,6.34,10.14,7.94,18.58S141.25,193.85,152.67,193.78Z" style="fill:#3f3f3f"/><path d="M160.52,183.89s13.7-33.5,26.62-44S202.83,126.75,214,119.6s11.53-18.72,9.74-21.87-17.48-7.13-28.8,7.77-14.11,28.21-18.08,35-20.74,19.22-23.24,25C151.77,169.66,159.12,181.83,160.52,183.89Z" style="fill:#3f3f3f"/><path d="M183.76,112.09s-4,13.18-8.85,15.91-7.64,5.51-11.81,5.91-15.9-2.28-26.42-11.87-17.09-16.75-25.43-15.65c0,0-11.85-6.65-8.11-9.83S121,97.73,121,97.73s23.93,19.29,36.5,17.7,15.75-12.12,21.51-15.6,13.71-2.48,14.11,0S183.76,112.09,183.76,112.09Z" style="fill:#3f3f3f"/><path d="M92.37,93.58s3.78,2.77,7.75,1.18,1-4.56,14.3-2.77,16.3,8.34,21.46,10.53,10.75,5.16,13.62,5.76c0,0,4.26-7.69-6.67-12.89s-13.2-4.79-20.21-6-9.39-4.3-14-3.74S100.72,86,92.37,93.58Z" style="fill:#3f3f3f"/><path d="M109.77,80s10.42,7.79,23.33,5.64c7-1.76,2.78-5.64,13-10.3,0,0-8.27-6.56-15-7.15S122.39,77.26,109.77,80Z" style="fill:#3f3f3f"/><path d="M149.5,79.3s7.24-.68,16.78,6.3c0,0,12.11,1.21,13.11,9.16,0,0,12.91-3.8,17.88,2.18,0,0-3-7.93-13.11-13.89s-10.78-8.94-10.78-8.94S154.18,75.94,149.5,79.3Z" style="fill:#3f3f3f"/></g></g></g></svg>